<svg version="1.1" id="transring" xmlns="http://www.w3.org/2000/svg"
                xmlns:xlink="http://www.w3.org/1999/xlink" x="0px" y="0px" viewBox="0 0 414 414"
                style="enable-background:new 0 0 414 414; background-color: lightblue" xml:space="preserve">

                <path id="Transparent_Ring" class="transrg"
                    style="opacity:0.4;fill:none;stroke:#FFFFFF;stroke-width:2;stroke-miterlimit:10;enable-background:new"
                    d="M84.2,85c31.3-31.5,74.7-51,122.7-51c95.5,0,173,77.5,173,173s-77.5,173-173,173
                c-47.8,0-91-19.4-122.3-50.7"></path>

                <path id="Opaque_Ring" class="transrgwht" stroke-dasharray="0,1000"
                    style="fill: none; stroke: rgb(255, 255, 255); stroke-width: 2; stroke-miterlimit: 10; stroke-dasharray: 10, 1000;"
                    d="M84.2,85c31.3-31.5,74.7-51,122.7-51c95.5,0,173,77.5,173,173s-77.5,173-173,173
                c-47.8,0-91-19.4-122.3-50.7"></path>

                <g id="Dots1" class="dots-nav">
                    <g>
                        <path class="dotsst dotsfill1" style="fill: rgb(0, 146, 255); opacity: 1;"
                            d="M84,80 c-3.3,0-6,2.7-6,6s2.7,6,6,6s6-2.7,6 -6 S 87, 80, 84,80 z"></path>
                    </g>
                    <g>
                        <path class="dotsstro1"
                            style="opacity: 0.4; fill: none; stroke: rgb(255, 255, 255); stroke-width: 2; stroke-miterlimit: 10;"
                            d="M84,80c-3.3,0-6,2.7-6,6s2.7,6,6,6s6-2.7,6 -6 S 87, 80, 84,80 z"></path>
                    </g>
                </g>
                <g id="Dots2" class="dots-nav">
                    <g>
                        <path class="dotsst dotsfill2" style="fill: rgb(0, 146, 255); opacity: 1;"
                            d="M206.8,29c-3.3,0-6,2.7-6,6s2.7,6,6,6s6-2.7,6 -6S 210.1,29, 206.8,29 z M206.8"></path>
                    </g>
                    <g>
                        <path class="dotsstro2"
                            style="opacity: 0.4; fill: none; stroke: rgb(255, 255, 255); stroke-width: 2; stroke-miterlimit: 10;"
                            d="M206.8,29c-3.3,0-6,2.7-6,6s2.7,6,6,6s6-2.7,6 -6S 210.1,29, 206.8,29 z M206.8"></path>
                    </g>
                </g>
                <g id="Dots3" class="dots-nav">
                    <g>
                        <path class="dotsst dotsfill3" style="fill: rgb(0, 146, 255); opacity: 1;"
                            d="M332,85 c-3.3,0-6,2.7-6,6s2.7,6,6,6s6-2.7,6 -6 S 335,85, 332,85 z M332"></path>
                    </g>
                    <g>
                        <path class="dotsstro3"
                            style="opacity: 0.4; fill: none; stroke: rgb(255, 255, 255); stroke-width: 2; stroke-miterlimit: 10;"
                            d="M332,85 c-3.3,0-6,2.7-6,6s2.7,6,6,6s6-2.7,6 -6 S 335,85, 332,85 z M332"></path>
                    </g>
                </g>
            </svg>
